<svg width="12" height="12" viewBox="0 0 12 12" fill="none" xmlns="http://www.w3.org/2000/svg">
<path d="M2.37763 1.55222C2.03507 1.20965 1.47355 1.20647 1.18454 1.59529C0.618024 2.35746 0.237919 3.24686 0.0810208 4.19193C-0.124 5.42686 0.0623737 6.69498 0.614038 7.8187C1.1657 8.94242 2.05503 9.86545 3.15746 10.4585C4.25989 11.0516 5.52021 11.285 6.76191 11.126C8.00361 10.9671 9.16449 10.4237 10.082 9.57204C10.9994 8.72039 11.6276 7.60309 11.8784 6.37664C12.1292 5.15019 11.9901 3.87601 11.4806 2.73256C11.0907 1.85749 10.4988 1.09253 9.7585 0.497646C9.38087 0.194171 8.83826 0.338705 8.59304 0.756518V0.756518C8.34782 1.17433 8.49587 1.70606 8.85448 2.03178C9.2877 2.42526 9.6373 2.90627 9.87806 3.4466C10.2386 4.25571 10.337 5.15733 10.1595 6.02517C9.98208 6.893 9.53762 7.6836 8.88841 8.28624C8.2392 8.88887 7.41776 9.27335 6.53913 9.38583C5.6605 9.49831 4.7687 9.33316 3.98861 8.91351C3.20853 8.49385 2.57924 7.84072 2.18888 7.04557C1.79852 6.25042 1.66664 5.35309 1.81172 4.47926C1.9086 3.8957 2.12575 3.34214 2.44587 2.85221C2.71087 2.44665 2.7202 1.89478 2.37763 1.55222V1.55222Z" fill="url(#paint0_linear_23_34)"/>
<defs>
<linearGradient id="paint0_linear_23_34" x1="6" y1="4.80054e-08" x2="7.5" y2="14.6746" gradientUnits="userSpaceOnUse">
<stop offset="0.641515" stop-color="white"/>
<stop offset="1" stop-color="#3888FC"/>
</linearGradient>
</defs>
</svg>
