<svg width="35" height="22" viewBox="0 0 35 22" fill="none" xmlns="http://www.w3.org/2000/svg">
<path d="M7.62193 0.0513788C6.63725 0.261866 5.59403 1.10115 4.54282 2.52926C2.47766 5.33753 0.68129 10.1468 0.14371 14.2926C0.0266129 15.1984 0 15.6247 0 16.5839C0 17.5591 0.0266129 17.9348 0.14371 18.5955C0.502983 20.5912 1.44242 21.7235 2.91943 21.942C3.62201 22.0459 4.31661 21.91 5.01387 21.5344C5.67653 21.1773 6.23008 20.7351 7.00983 19.9384C7.69378 19.2403 8.14354 18.7021 9.29854 17.1967C9.66846 16.7118 10.0836 16.1816 10.222 16.0191L10.4722 15.718H17.0163H23.5604L23.8105 16.0191C23.9489 16.1816 24.396 16.7544 24.8085 17.29C26.0221 18.8726 26.4798 19.4082 27.2516 20.1675C27.9063 20.807 28.3587 21.164 28.9255 21.4837C29.6654 21.8994 30.3813 22.0513 31.1131 21.942C31.4564 21.8914 31.7385 21.8035 32.0286 21.6569C33.8356 20.751 34.4637 17.7989 33.7691 13.4932C33.2102 10.0295 31.7997 6.15816 30.1205 3.46446C29.5776 2.59587 29.0692 1.9431 28.4731 1.34094C27.7679 0.632216 27.1984 0.261866 26.5277 0.0726939C26.3175 0.0114129 26.3042 0.0114129 24.0421 0.00341973C21.8332 -0.00457344 21.764 -0.00190905 21.5937 0.0487144C21.3675 0.117989 21.0375 0.328476 20.5026 0.744121C20.0209 1.11714 19.7574 1.28766 19.5525 1.36226C19.4221 1.40755 19.2757 1.41022 17.0163 1.41022C14.7568 1.41022 14.6105 1.40755 14.4801 1.36226C14.2751 1.28766 14.0117 1.11714 13.53 0.744121C12.9977 0.33114 12.6677 0.120653 12.4442 0.0513788C12.2792 0.000755343 12.1967 -0.00190905 10.0597 0.000755343C8.02644 0.000755343 7.82951 0.00608413 7.62193 0.0513788ZM25.4872 3.36588C25.7666 3.43249 26.0114 3.64831 26.1072 3.92008C26.1605 4.06662 26.1605 4.34904 26.1072 4.49558C25.8863 5.11372 25.0933 5.28158 24.6542 4.80465C24.4812 4.61815 24.428 4.47693 24.428 4.20783C24.428 4.03464 24.4413 3.95205 24.4838 3.85879C24.5956 3.619 24.8165 3.43516 25.0773 3.36588C25.237 3.32325 25.3009 3.32325 25.4872 3.36588ZM8.92596 4.6741V5.61996H9.87072H10.8155L10.8102 6.24875L10.8022 6.87489L9.86539 6.87222H8.92596L8.92064 7.82341L8.91265 8.77726L8.28193 8.78525L7.64854 8.79058V7.8314V6.87222H6.70378H5.75903V6.24609V5.61996H6.70378H7.64854V4.6741V3.72824H8.28725H8.92596V4.6741ZM23.3581 5.4974C23.6455 5.56401 23.909 5.81179 23.9889 6.08889C24.0368 6.25408 24.0128 6.56848 23.9409 6.71769C23.8584 6.88554 23.6855 7.0534 23.5098 7.136C23.2969 7.23458 22.9989 7.23191 22.7886 7.13067C22.613 7.04541 22.4373 6.86689 22.3575 6.69104C22.275 6.51519 22.275 6.16349 22.3548 5.99031C22.4693 5.74518 22.7061 5.55068 22.9696 5.4894C23.1159 5.45477 23.1851 5.45743 23.3581 5.4974ZM27.8397 5.56667C28.1405 5.71588 28.3134 5.99564 28.3134 6.33934C28.3134 6.51253 28.3001 6.56582 28.2256 6.71769C28.0713 7.03475 27.7972 7.20527 27.4485 7.20527C27.0972 7.20261 26.8258 7.03208 26.6714 6.71769C26.5969 6.56582 26.5836 6.51519 26.5836 6.33934C26.5863 6.17948 26.5996 6.10754 26.6555 5.99031C26.8684 5.5267 27.382 5.34286 27.8397 5.56667ZM25.6974 7.7195C25.8677 7.80209 26.0327 7.97528 26.1152 8.15113C26.2057 8.34563 26.211 8.66003 26.1259 8.8492C26.046 9.02505 25.873 9.20356 25.6947 9.28882C25.567 9.35277 25.5138 9.36343 25.3195 9.36343C25.1252 9.36343 25.072 9.35277 24.9416 9.28882C24.4972 9.07034 24.3188 8.50816 24.5637 8.08186C24.6462 7.93531 24.8671 7.73815 25.0081 7.68753C25.1784 7.62358 25.5377 7.64223 25.6974 7.7195ZM13.703 11.1486C14.3443 11.2845 14.8899 11.828 15.0363 12.4834C15.1268 12.8937 15.0469 13.3707 14.8287 13.741C14.6903 13.9782 14.4029 14.2499 14.1554 14.3778C13.8706 14.5244 13.6524 14.5803 13.3437 14.5803C12.6624 14.583 12.0663 14.21 11.7735 13.5998C11.6405 13.32 11.6032 13.1495 11.6059 12.8405C11.6085 12.1557 11.9731 11.5802 12.5906 11.2791C12.9285 11.1139 13.3224 11.0686 13.703 11.1486ZM21.0694 11.1486C21.434 11.2258 21.8252 11.471 22.0568 11.764C22.3122 12.0891 22.4267 12.4355 22.4267 12.8671C22.424 13.36 22.251 13.7543 21.8838 14.106C21.5458 14.4284 21.1572 14.583 20.6889 14.5803C20.2178 14.5776 19.8026 14.4071 19.478 14.0794C19.1506 13.749 18.991 13.3947 18.967 12.947C18.9484 12.6193 19.0016 12.3609 19.1506 12.0598C19.3689 11.6228 19.8426 11.2525 20.3163 11.1512C20.5425 11.1006 20.8459 11.1006 21.0694 11.1486Z" fill="url(#paint0_linear_8_33)"/>
<path d="M14.8753 9.6468C14.7511 9.82647 14.5033 9.8729 14.3374 9.73087C13.831 9.29732 13.4448 8.73724 13.2203 8.1047C12.9516 7.34746 12.9281 6.52485 13.1532 5.75353C13.3783 4.98218 13.8406 4.30133 14.4745 3.80757C15.1083 3.31377 15.8816 3.03212 16.6846 3.00259C17.4875 2.97302 18.2794 3.1971 18.9479 3.64297C19.6163 4.08884 20.1274 4.73388 20.4086 5.48657C20.6897 6.23926 20.7268 7.06137 20.5144 7.83632C20.3369 8.48366 19.993 9.0706 19.5198 9.54023C19.3648 9.69404 19.1143 9.66592 18.9772 9.49589C18.8402 9.32586 18.8693 9.07852 19.02 8.92058C19.3659 8.55829 19.6182 8.11434 19.7517 7.62728C19.9202 7.01256 19.8909 6.3604 19.6678 5.76329C19.4447 5.16621 19.0393 4.65451 18.509 4.30083C17.9788 3.94711 17.3506 3.76939 16.7136 3.79284C16.0767 3.81625 15.4633 4.03968 14.9604 4.43139C14.4576 4.82309 14.0909 5.36321 13.9123 5.97505C13.7337 6.58693 13.7524 7.23951 13.9656 7.84019C14.1345 8.31612 14.4187 8.7403 14.7903 9.07623C14.9523 9.22266 14.9994 9.46716 14.8753 9.6468Z" fill="url(#paint1_linear_8_33)"/>
<path d="M15.3361 8.40591C15.1505 8.6059 14.8334 8.61967 14.671 8.4004C14.4578 8.11237 14.3037 7.7829 14.22 7.43098C14.0979 6.91794 14.1307 6.38027 14.3143 5.8859C14.4978 5.39153 14.8238 4.96269 15.251 4.65361C15.6783 4.34453 16.1876 4.16907 16.7146 4.14941C17.2416 4.12978 17.7625 4.26688 18.2116 4.54333C18.6606 4.81978 19.0176 5.22314 19.2374 5.70252C19.4572 6.18186 19.53 6.71559 19.4464 7.23628C19.3891 7.59348 19.26 7.93346 19.0688 8.23657C18.9232 8.46735 18.6059 8.47718 18.4059 8.29158C18.2059 8.10594 18.2026 7.79468 18.3222 7.54945C18.3942 7.40183 18.4445 7.24366 18.4708 7.07971C18.5234 6.75201 18.4776 6.41604 18.3393 6.11434C18.2009 5.81265 17.9762 5.55873 17.6936 5.38472C17.4109 5.21075 17.083 5.12445 16.7514 5.13681C16.4197 5.14917 16.0991 5.2596 15.8302 5.45415C15.5613 5.6487 15.3561 5.91861 15.2406 6.22979C15.1251 6.54093 15.1044 6.87939 15.1812 7.20227C15.2197 7.36377 15.2816 7.51778 15.3644 7.65965C15.5019 7.89532 15.5217 8.20593 15.3361 8.40591Z" fill="url(#paint2_linear_8_33)"/>
<path d="M15.9892 5.754C15.4933 6.09766 15.6219 7.49126 16.1453 7.49126C16.3198 7.49126 16.3198 7.4817 16.1361 7.13808C15.9341 6.7372 15.8973 6.39354 16.0627 6.28854C16.1178 6.25036 16.2096 6.27901 16.2647 6.35536C16.3198 6.43171 16.4575 6.56537 16.5677 6.67037C16.7698 6.84216 16.7789 6.84216 17.1187 6.53672L17.4585 6.22175L17.532 6.44128C17.5871 6.59398 17.5595 6.76581 17.4218 7.03308C17.3207 7.24308 17.2565 7.45308 17.284 7.50079C17.4769 7.82535 17.9728 7.2049 17.9728 6.63219C17.9728 6.26945 17.6789 5.67765 17.4952 5.67765C17.431 5.67765 17.2473 5.8113 17.082 5.97357L16.7881 6.27901L16.4575 5.97357C16.0902 5.63947 16.1269 5.65856 15.9892 5.754Z" fill="#1D42CF"/>
<defs>
<linearGradient id="paint0_linear_8_33" x1="8.5" y1="5" x2="17.0227" y2="2.54058e-07" gradientUnits="userSpaceOnUse">
<stop stop-color="white"/>
<stop offset="1" stop-color="#F5F5F5" stop-opacity="0.99"/>
</linearGradient>
<linearGradient id="paint1_linear_8_33" x1="19.9721" y1="8.99995" x2="13.6783" y2="4.65049" gradientUnits="userSpaceOnUse">
<stop stop-color="#1D42CF"/>
<stop offset="1" stop-color="#3888FC"/>
</linearGradient>
<linearGradient id="paint2_linear_8_33" x1="18.7681" y1="8.62766" x2="14.8596" y2="4.99998" gradientUnits="userSpaceOnUse">
<stop stop-color="#1D42CF"/>
<stop offset="1" stop-color="#3888FC"/>
</linearGradient>
</defs>
</svg>
